<svg xmlns="http://www.w3.org/2000/svg" fill="none" viewBox="0 0 96 96">
  <mask id="a" width="96" height="96" x="0" y="0" maskUnits="userSpaceOnUse" style="mask-type:alpha">
    <circle cx="48" cy="48" r="48" fill="#D9D9D9"/>
  </mask>
  <g mask="url(#a)">
    <path fill="#fff" d="M0 0h96v96H0z"/>
    <path fill="#043C96" d="M28.92 44.53c1.16-12.37 4.99-17.43 7.15-19.66 12.87-10.66 25.23-1.26 27.52 6.7 2.73 9.49-1.32 19.46-1.48 23.18-.3 6.89 3.36 10.7 4.14 11.6-.9.66-9.31 3.6-21.72 4.3-12.42.7-20.44-7.39-22.09-10.48 5-1.69 5.55-5.72 6.48-15.64Z"/>
    <path fill="#065AE1" d="M2.16 78.18a8 8 0 0 1 6.58-8.9l39.6-6.8 39 5.28a8 8 0 0 1 6.88 8.7l-5.07 52.74 12 62.83-99.32 1.67 7.29-60.9-6.96-54.62Z"/>
    <path fill="#7BACFC" d="M38.93 52.04h19.43v12.9H38.93z"/>
    <path fill="#FBFCFF" d="M49.78 101.8c-2.6-6.57-10.79-27.57-14-37.65l12.9-.18H60.3c-2.47 11.65-8.48 30.16-10.52 37.83Z"/>
    <path fill="#3983FA" d="M-24.9 150.47c3.24-33.84 12.66-50.8 26.4-78.42 2.58 13.39 5.15 35.28 5.15 41l-7.02 26.7 59.76-3.18c2.17 7.14 3.1 13 2.17 23.27-28.97 1.7-65.5 3.88-73.43 3.88-7.93 0-13.74-5.9-13.03-13.25Z"/>
    <path fill="#9CC1FD" d="M66.77 42.7c.33-3.44-4.63-3.74-7.07-3.27l.17 7.14c2.1.02 6.57-.43 6.9-3.87Z"/>
    <circle cx="63.13" cy="46.8" r="1.5" fill="#FFC971" transform="rotate(-1 63.13 46.8)"/>
    <path fill="#054BBB" fill-rule="evenodd" d="M63.5 41.15c-.13.27-.01.6.26.73.16.07.33.18.47.3.15.12.23.23.25.3.02.04.02.07-.02.14-.06.1-.24.26-.65.46a.54.54 0 1 0 .46.99c.5-.24.88-.52 1.1-.86.24-.36.27-.76.14-1.1a1.87 1.87 0 0 0-.58-.77 3.44 3.44 0 0 0-.7-.45.54.54 0 0 0-.73.26Z" clip-rule="evenodd"/>
    <path fill="#9CC1FD" d="M49.04 59.45c-12.44 0-19.22-18.58-15.07-28.77 7.17-11.22 23-11.4 28.7.96 2.07 8.6-1.2 27.81-13.63 27.81Z"/>
    <path fill="#9CC1FD" d="M29.23 44.37c-.49-3.42 4.08-3.94 6.54-3.59l.16 7.14c-2.1.12-6.21-.13-6.7-3.55Z"/>
    <path fill="#054BBB" fill-rule="evenodd" d="M33.31 42.42c.14.27.03.6-.24.73-.16.08-.33.2-.47.31a.81.81 0 0 0-.24.31c-.02.04-.02.08.02.14.07.1.25.26.67.45a.54.54 0 1 1-.45 1 2.6 2.6 0 0 1-1.11-.83 1.21 1.21 0 0 1-.16-1.1c.1-.33.33-.6.55-.78.22-.2.48-.36.7-.47.27-.13.6-.03.73.24Zm18.6 7.23c.17.25.1.6-.14.76a3.37 3.37 0 0 1-4.52-.47.54.54 0 0 1 .81-.73c.22.24.65.56 1.2.7.52.13 1.17.1 1.9-.4.24-.17.58-.1.75.14Z" clip-rule="evenodd"/>
    <path fill="#043C96" d="M49.15 24.3c6.5 1.48 12.72 7.45 14.18 13.5.46-9.02-4.2-16.97-13.17-17.45-18.81-1.01-18.56 15.59-17.82 20.53l2.18-.05c1.94-5.98 7.53-13.96 14.63-16.54Z"/>
    <path fill="#E3EDFE" d="m37.4 69.52-1.9-5.86 13.02.37-11.12 5.49Zm22.25 0 1.9-5.86-12.87.37 10.97 5.49Z"/>
    <path fill="#FFC971" d="M22.77 74.62h3.67v6.33h-3.67z"/>
    <path fill="#FFA617" d="M21.55 77.62h5.88v15.51h-5.88z"/>
    <path fill="#3983FA" d="M32.85 86.63H13.97c0 6.91-.08 21.73 9.84 21.73 9.48 0 9.04-13.32 9.04-21.73Z"/>
    <rect width="2.03" height="14.15" x="18.22" y="77.62" fill="#FFA617" rx="1.02"/>
    <path fill="#FFA617" d="M18.22 77.62h4.57v2.26h-4.57z"/>
    <circle cx="48.69" cy="68.8" r=".98" fill="#FFA617"/>
    <circle cx="48.69" cy="79.91" r=".98" fill="#FFA617"/>
    <circle cx="45.47" cy="38.06" r=".83" fill="#054BBB" transform="rotate(-1 45.47 38.06)"/>
    <circle cx="55.72" cy="37.74" r=".83" fill="#054BBB" transform="rotate(-1 55.72 37.74)"/>
    <path fill="#3983FA" d="M121.52 127 94.75 70.16c-1.4 11.53-4 38.44-3.8 39.17 2.84 14.56 12.82 33.94 18.96 38.06 7.65 5.13 29.32 13.2 39.14 18.3l9.6-18.1-37.13-20.6Z"/>
    <path fill="#054BBB" fill-rule="evenodd" d="M48.1 36.66c-2.8-.94-4.48.2-4.92.76a.54.54 0 0 1-.85-.69c.73-.9 2.9-2.18 6.11-1.1a.54.54 0 1 1-.34 1.03Zm5.14-.9c.3-.02.55.22.57.52l.47 10.22-3.67.07a.54.54 0 1 1-.02-1.09l2.55-.05-.42-9.1a.54.54 0 0 1 .52-.57Z" clip-rule="evenodd"/>
    <path fill="#054BBB" fill-rule="evenodd" d="M58.65 36.34c-2.72-1.2-4.53-.22-5.02.28a.54.54 0 1 1-.78-.76c.82-.84 3.11-1.9 6.24-.51a.54.54 0 1 1-.44 1Z" clip-rule="evenodd"/>
    <circle cx="33.13" cy="47.26" r="1.43" fill="#FFC971" transform="rotate(-1 33.13 47.26)"/>
    <path fill="#FFA617" d="M33.16 28.66c-.02-1.51.06-6.49-.35-9.15 1.6-1.92 5.43-2.65 10.95-3.2 5.53-.55 14.1.4 17.68.95l.14 10.29c-1.2.34-5.2 2.19-12.6 2.77-7.65.6-13.22-1.19-15.82-1.66Z"/>
    <path fill="#DE8900" d="M47.89 24.75 22.6 19.97l.03-.99 23.5-5.86 24.76 2.41-.02.93-22.98 8.29Z"/>
    <path fill="#FFC971" d="m22.57 19 24.08-6.83 24.25 3.36-23.01 8.15L22.57 19Z"/>
    <path fill="#DF2626" fill-rule="evenodd" d="M56.66 16.92c-2.89-.08-6.3-.14-9.3-.16v-.9c3.02.02 6.43.08 9.32.16 2.88.08 5.27.2 6.21.33l.28.04c.58.07 1.3.17 1.9.45.37.17.71.42.96.79.26.37.4.83.42 1.4.05 1.6 0 5.86-.04 7.6h-.9c.04-1.77.09-6 .04-7.57a1.67 1.67 0 0 0-.26-.92c-.14-.2-.34-.36-.6-.49a5.87 5.87 0 0 0-1.6-.37l-.33-.04a74.7 74.7 0 0 0-6.1-.32Z" clip-rule="evenodd"/>
    <path fill="#DF2626" d="M48.24 16.26c0 .39-.35.7-.78.7-.43 0-.77-.32-.77-.7 0-.4.35-.7.78-.7.43 0 .77.32.77.7ZM64.5 29.22l1.5-4.19 1.41 4.21-2.9-.02Z"/>
  </g>
</svg>
