<svg xmlns="http://www.w3.org/2000/svg" width="96" height="96" fill="none"><mask id="a" width="96" height="96" x="0" y="0" maskUnits="userSpaceOnUse" style="mask-type:alpha"><circle cx="48" cy="48" r="48" fill="#D9D9D9"/></mask><g mask="url(#a)"><path fill="#fff" d="M0 0h96v96H0z"/><path fill="#9CC1FD" d="M62.7 38.7c.4-3.4-5-3.5-7.4-3v7c2.1.1 7-.6 7.4-4Z"/><path fill="#054BBB" fill-rule="evenodd" d="M59.3 37.4c-.1.4 0 .7.3.9.2 0 .3.2.5.3a.7.7 0 0 1 .2.3c0 .1-.2.3-.6.4a.6.6 0 0 0 .5 1.2c.5-.2.9-.5 1.1-.9.3-.3.3-.8.2-1.1a2 2 0 0 0-.6-.9l-.7-.4a.6.6 0 0 0-.9.2ZM29.7 40.2c.2-.3 0-.7-.3-.8L29 39a.7.7 0 0 1-.2-.3c0-.2.2-.3.6-.5a.6.6 0 0 0-.5-1.2c-.5.3-1 .6-1.2.9-.2.4-.3.8-.1 1.2 0 .3.3.6.5.8l.8.5c.3.1.7 0 .8-.3Z" clip-rule="evenodd"/><path fill="#065AE1" d="M-9.7 72.7a8 8 0 0 1 7-8.3l47-6.7 52.2 5.7a8 8 0 0 1 7 6.3c7.6 37.5 6.8 59.5-2.1 96.6l-106.6 1.4-4.5-95Z"/><path fill="#3983FA" d="M85.3 137.8c-2.5 2.4-5.6 4.6-5.3 3.8.6-1.5-3.5-24.2-3.5-53.6l20.2-2.4c1.2 7.1 4 23.4 7.3 35.7 5.2 19.6 6.4 21 3 30.8-2.8 8.4-11.9 13.5-23.7 5.8-5.2-6-1.9-14.3 2-20Z"/><path fill="#7BACFC" d="M34.4 49.8h20.3v10.4c-6 1.7-14.8 1.6-20.3 0V49.8Z"/><path fill="#FBFCFF" d="M46.3 99.6A368 368 0 0 1 31 59.2l13.5.6 12.2-1.2c-2.5 12.2-8.3 33-10.4 41Z"/><path fill="#FFA617" d="m44 67-4.2-6.4c4.7-2 8.4-.8 9.6 0L45.5 67 50 87.2 46 99.9l-4.5-10.7 2.3-22.3Z"/><path fill="#E3EDFE" d="m32.6 66-2-7.3 13.6.8L32.6 66ZM55.8 66l2-7.3-13.4.8L55.8 66Z"/><path fill="#9CC1FD" d="M45.5 56C31 56 30 36.4 29 24.6h30.9c-.6 12.5 0 31-14.3 31.4Z"/><path fill="#043C96" d="M31.7 19.5c-3.5 1.5-4 3.7-4.1 5-.3 3 1.7 6.2 6.1 3 1.5.8 3 1.4 5 1.1 3.3-.5 4.9-1.8 5.4-3.1.8.4 2 1.1 4.8 1.3a8 8 0 0 0 5.2-1.3c1 1 2.2 2 4 2 1.8 0 2.7-1.5 2.7-3.6 0-2.2-2.2-3.6-3.9-3.3a5 5 0 0 0-3.8-4c-3-.6-5.5.3-6.2 1.6-.3-.5-1.8-2-4.7-2-3.4 0-4.3 2-5.3 3-.2-.5-2.2-1-5.2.3Z"/><path fill="#054BBB" fill-rule="evenodd" d="M45.8 33.8c-2.7-1-4.3 0-4.8.6a.5.5 0 0 1-.8-.7c.7-.8 2.9-2 6-1a.5.5 0 1 1-.4 1ZM51.6 33c.3 0 .6.3.6.6l.2 10.1h-3.6a.5.5 0 0 1 0-1h2.5l-.2-9.1c0-.3.2-.6.5-.6Z" clip-rule="evenodd"/><path fill="#054BBB" d="M43.8 35.3a.8.8 0 1 1-1.6 0 .8.8 0 0 1 1.6 0ZM54.7 35.1a.8.8 0 1 1-1.7 0 .8.8 0 0 1 1.7 0Z"/><path fill="#9CC1FD" d="M25.9 39c-.4-3.4 5-3.4 7.4-3v7.2c-2.1 0-7-.7-7.4-4.1Z"/><path fill="#9CC1FD" d="M25.9 39c-.4-3.4 5-3.4 7.4-3v7.2c-2.1 0-7-.7-7.4-4.1Z"/><path fill="#054BBB" fill-rule="evenodd" d="M30.1 37.9c.2.3 0 .7-.2.8-.2 0-.4.2-.5.3a.7.7 0 0 0-.2.3c0 .1.2.3.6.5a.6.6 0 1 1-.5 1.1c-.5-.2-.9-.5-1.1-.8-.3-.4-.3-.8-.2-1.2.1-.4.3-.6.6-.8l.7-.5c.3-.2.7 0 .8.3Z" clip-rule="evenodd"/><path fill="#043C96" d="M29.2 36c-1-1.3-1.1-7.6-1-10.2H32l-1.3 9.8c-.2 1-.9 1-1.5.5ZM59.3 35.7l.2-10H58l.7 9.9s.2.3.7.1Z"/><path fill="#054BBB" fill-rule="evenodd" d="M49.6 46.4c.2.2.1.5-.1.7a3 3 0 0 1-4.2-.4.5.5 0 1 1 .8-.7c.2.3.6.5 1 .7.6 0 1.1 0 1.8-.4.2-.2.5-.1.7.1ZM54.3 33c-1.4 0-2 .6-2.3.9a.5.5 0 1 1-.8-.7 4 4 0 0 1 3-1.2 6 6 0 0 1 2.9.7.5.5 0 0 1-.5 1c-.6-.4-1.3-.7-2.3-.7Z" clip-rule="evenodd"/><path fill="#7BACFC" d="M70.7 66.4c-.4 7.6 2.2 10 4 14.5l-.5 10.6 14.9-1 .5-9.3c1.3-3.2 3.4-10 3.7-17 .4-1.5.5-3.6-.5-4.8-1.2-1-2.9-.1-3.2 1 .1-1.2.5-2.5-.7-3.2-1.1-.7-2.6.3-3 1.4.3-1.1.2-3-1.2-3.4-2-.6-4 1.5-4.4 3.6-.9-5.3-.8-7.1-1.5-10.3-.8-3.4-4.2-3.4-4-.9l.7 13.6c-3.1.7-4.5 4.4-4.8 5.2Z"/><path fill="#7BACFC" d="M74.3 55.6c-1 2.3-2.6 7.4-3.5 10.4a21.3 21.3 0 0 0 4 14.5c2.9-.2 8.2-1.7 7.2-6.4-1-4.8-3.9-7-5.2-7.4.2-.6.7-2.5 1-5.5.3-3-2.3-5.2-3.5-5.6Z"/><path fill="#5093FE" fill-rule="evenodd" d="M77.2 59.8c-.2-2.6-2-3.5-3-3.7l.2-.9c1.4.3 3.4 1.5 3.6 4.6.1 1.8-.4 4.3-.9 6 1.3.8 2.5 2 3.4 3.4 1 1.5 1.8 3.3 2 5l-1 .1c0-1.6-.8-3.2-1.7-4.6-1-1.5-2.2-2.6-3.4-3.3l-.3-.2.1-.3a19 19 0 0 0 1-6Z" clip-rule="evenodd"/><path fill="#7BACFC" d="M81.8 66.1c-2 0-.6-5.6.4-8.4.4-.8 1.6-2.4 2.7-2 1 .5 1.1 1.9 1.1 2.5.5-.8 2-1.7 3-1.2 1.3.5 1.1 2.2 1 3 .2-.5 1-1.2 2.1-.8 2.3.8.4 6-1 8.7-1.8 2.9-3.4-.6-2.2-5.2-.7 2-2 4.5-3.3 4.5-1.4-.1-.8-3.8 0-6.5-.8 2.4-2.2 5.5-3.8 5.4Z"/><path fill="#5093FE" fill-rule="evenodd" d="M81.5 64.7c.1.2.2.2.3.2.3 0 .7-.2 1.1-.6a20.3 20.3 0 0 0 2.7-6l.8.2a25.9 25.9 0 0 0-1.1 4.9v2l.2.4.2.1c.2 0 .5-.1 1-.5l1.1-1.5a17.4 17.4 0 0 0 1.8-3.8l.8.3-.4 1.2-.7 2.7a8.8 8.8 0 0 0 0 2.8l.2.6h.1c.2 0 .4-.2.7-.6l1.2-2 .7.4-1.3 2.2c-.3.4-.6.7-1 .8a1 1 0 0 1-.5 0 1 1 0 0 1-.5-.2 2 2 0 0 1-.5-1 9 9 0 0 1 0-2.8 8 8 0 0 1-1.2 1.5c-.4.4-1 .8-1.6.8a1 1 0 0 1-.8-.5 2 2 0 0 1-.4-.8v-1.8a7 7 0 0 1-.9 1.2c-.4.5-1 .9-1.7.8-.3 0-.7-.1-1-.4-.2-.4-.4-.9-.5-1.6-.1-1.3.2-3.5 1.3-7l.8.3a17.6 17.6 0 0 0-1.2 6.7c0 .5.2.9.3 1Z" clip-rule="evenodd"/><path fill="#054BBB" fill-rule="evenodd" d="M80.4 37c0 .2 0 .4-.2.4L70.9 39a.3.3 0 0 1 0-.6l9.2-1.6c.1 0 .3 0 .3.2ZM80.4 39c0 .2 0 .3-.2.4L70.9 41a.3.3 0 0 1 0-.6l9.2-1.6c.1 0 .3 0 .3.2Z" clip-rule="evenodd"/><path fill="#FFCD4E" d="M67.4 26.2c0 4.4 3.5 8.5 5.2 10h6.2c.7-1 2-2.1 3.5-7.5 1.6-5.4-.7-11.3-6.2-11.6-5.5-.3-8.8 3.5-8.7 9Z"/><path fill="#054BBB" fill-rule="evenodd" d="M71.1 35.7h8.7v6.4h-8.7v-6.4Zm.6.6v5.2h7.5v-5.2h-7.5Z" clip-rule="evenodd"/><path stroke="#fff" stroke-linecap="round" stroke-width="1.5" d="M74.3 34.4c0-1.9.1-6-.3-7.2-.5-1.7-1.5-2.7-2.4-1.6-1 1 1.5 3.1 3.8 2.2 2.2-1 5-2.8 3.6-4-.9-.8-2.1.9-2.1 4.7 0 3.1.2 5.4.3 6.2"/></g></svg>