<svg xmlns="http://www.w3.org/2000/svg" fill="none" viewBox="0 0 112 112">
  <mask id="a" width="112" height="112" x="0" y="0" maskUnits="userSpaceOnUse" style="mask-type:alpha">
    <circle cx="56" cy="56" r="56" fill="#D9D9D9"/>
  </mask>
  <g mask="url(#a)">
    <path fill="#fff" d="M0 0h112v112H0z"/>
    <path fill="#043C96" d="M29.34 41.42c1.35-14.34 5.63-20.58 8.28-22.78C52.53 6.3 66.85 17.18 69.5 26.4c3.16 10.99-1.53 22.55-1.71 26.86-.35 7.97 3.89 12.4 4.8 13.43-1.05.77-10.8 4.17-25.17 4.98-14.38.81-23.68-8.56-25.59-12.14 5.79-1.95 6.43-6.63 7.51-18.11Z"/>
    <path fill="#065AE1" d="M-.01 74.65a3.23 3.23 0 0 1 2.62-3.63l49.02-8.92 50.25 5.82c1.73.2 3 1.74 2.85 3.48l-5.53 65.56 14.47 71.2L.9 211.37l8.5-69.25-9.41-67.48Z"/>
    <path fill="#3983FA" d="m134.49 134.1-29.76-63.17c-1.56 12.82-4.44 42.73-4.22 43.55 3.16 16.17 14.24 37.71 21.06 42.3 8.51 5.7 32.6 14.67 43.51 20.33l10.66-20.12-41.25-22.88Zm-163.64 1.3L.6 72.21c1.55 12.82 4.43 42.72 4.21 43.54-3.15 16.17-14.24 37.72-21.06 42.3-8.5 5.7-32.59 14.67-43.5 20.33l-10.67-20.12 41.26-22.88Z"/>
    <path fill="#7BACFC" d="m41.14 50.02 22.07-.26.17 14.65-22.07.26z"/>
    <path fill="#9CC1FD" d="M72.22 39.03c.33-3.91-5.3-4.18-8.07-3.62l.28 8.1c2.4 0 7.46-.57 7.8-4.48Z"/>
    <circle cx="68.14" cy="43.73" r="1.7" fill="#FFC971" transform="rotate(-2 68.14 43.73)"/>
    <path fill="#054BBB" fill-rule="evenodd" d="M68.48 37.31c-.14.32 0 .68.3.83.2.08.39.2.55.33.17.14.26.26.29.34.01.05.02.08-.03.16-.07.1-.26.3-.73.53a.62.62 0 1 0 .55 1.12 3 3 0 0 0 1.23-.98c.27-.43.3-.87.14-1.27-.14-.37-.4-.65-.66-.86a3.82 3.82 0 0 0-.82-.5.62.62 0 0 0-.82.3Z" clip-rule="evenodd"/>
    <path fill="#9CC1FD" d="M52.72 58.3c-14.13.16-22.08-20.85-17.5-32.47 8-12.85 25.96-13.27 32.6.7 2.47 9.74-.98 31.6-15.1 31.76Z"/>
    <path fill="#9CC1FD" d="M30.02 41.43c-.6-3.88 4.57-4.53 7.37-4.16l.28 8.1c-2.39.17-7.06-.07-7.65-3.94Z"/>
    <path fill="#054BBB" fill-rule="evenodd" d="M34.63 39.16c.15.31.03.68-.27.84-.18.1-.37.22-.53.36a.92.92 0 0 0-.27.35c-.01.05-.02.08.03.16.08.1.28.3.76.5a.62.62 0 0 1-.5 1.14 2.95 2.95 0 0 1-1.27-.93c-.3-.4-.33-.85-.2-1.25.12-.38.37-.67.62-.9.25-.22.53-.4.79-.53.3-.16.68-.04.84.26Zm21.22 7.97c.2.28.13.67-.15.86a3.83 3.83 0 0 1-5.14-.47.62.62 0 0 1 .91-.85 2.59 2.59 0 0 0 3.51.3c.28-.2.67-.13.87.16Z" clip-rule="evenodd"/>
    <path fill="#043C96" d="M52.36 18.36c7.4 1.6 14.55 8.3 16.29 15.15.4-10.25-5-19.21-15.2-19.64-21.37-.9-20.86 17.96-19.95 23.55l2.48-.08c2.11-6.82 8.36-15.95 16.38-18.98Z"/>
    <path fill="#D3E4FE" d="m39.63 69.88-2.24-6.62 14.98 1.2-12.74 5.42Zm25.27-.3 2.08-6.67-14.55 1.6 12.46 5.07Z"/>
    <circle cx="52.47" cy="72.18" r="1.12" fill="#043C96" transform="rotate(-1 52.47 72.18)"/>
    <circle cx="48.29" cy="34.09" r=".95" fill="#054BBB" transform="rotate(-2 48.3 34.09)"/>
    <circle cx="60.06" cy="33.59" r=".95" fill="#054BBB" transform="rotate(-2 60.06 33.59)"/>
    <path fill="#054BBB" fill-rule="evenodd" d="M51.34 32.43c-3.19-1.03-5.08.3-5.58.92a.62.62 0 1 1-.97-.77c.82-1.04 3.26-2.52 6.93-1.33a.62.62 0 1 1-.38 1.18Zm5.82-1.1c.34-.02.64.24.66.58l.67 11.6-4.16.14a.62.62 0 1 1-.04-1.24l2.89-.1-.6-10.33a.62.62 0 0 1 .58-.65Z" clip-rule="evenodd"/>
    <path fill="#054BBB" fill-rule="evenodd" d="M63.32 31.93c-3.11-1.34-5.15-.2-5.7.38a.62.62 0 1 1-.9-.87c.93-.96 3.52-2.19 7.09-.66a.62.62 0 1 1-.5 1.15Z" clip-rule="evenodd"/>
    <path fill="#7BACFC" d="M96.8 48.8c-.48 1.76-2.59 7.78-3.64 10.22a16.84 16.84 0 0 1-2.84 4.84c-.99 1-3.75-.37-5-1.2-.06-1.41.06-4.67.96-6.35 1.12-2.1 3.2-9.66 6.63-11.1 3.51-1.49 4.44.65 3.89 3.6Z"/>
    <path fill="#5696FF" d="M97.72 81.99c4-4.77 5.41-10.32 5.8-12.68-.17-4.79-10.38-10.2-15.17-12.08-1.48 1.02-6.86 5-8.63 12.47-1.77 7.48-1.5 24.64-.45 30.23l18.24-3.05.2-14.9Z"/>
    <path fill="#146CF9" d="M74.2 120.87 72.19 91.6l25.9-.85 4.86 28.97-28.73 1.16Z"/>
    <rect width="42.54" height="26.32" x="52.41" y="51.31" fill="#FFE4B8" rx=".81" transform="rotate(-3 52.41 51.31)"/>
    <circle cx="62.14" cy="59.95" r="4.87" fill="#FFA617" transform="rotate(-3 62.14 59.95)"/>
    <rect width="20.93" height="2.38" x="70.2" y="55.8" fill="#FFC972" rx="1.19" transform="rotate(-3 70.2 55.8)"/>
    <rect width="20.93" height="2.38" x="70.43" y="60.67" fill="#FFC972" rx="1.19" transform="rotate(-3 70.43 60.67)"/>
    <rect width="32.97" height="2.38" x="58.77" y="69.27" fill="#FFC972" rx="1.19" transform="rotate(-3 58.77 69.27)"/>
    <path fill="#7BACFC" d="M102.02 63.81c3.49-.12 2.02 4.65 1.12 7.1l-1.47-1.79c-2.7 1.41-8.51 3.58-10.23 2.52-1.7-1.05.78-3.38 2.12-4.91-1.81.45-4.1 1.41-5.15-.08-1.25-1.77 1.85-3.69 3.16-4.5-.63.2-2.95.18-3.97-.97s1.13-3.3 2.21-4.03c1.82-1.29 6.22-3.82 9.3-3.65 3.08.17 2.16 3.53 1.32 5.2 3.58.4 2.9 2.62 1.59 5.11Z"/>
    <circle cx="34.48" cy="44.66" r="1.63" fill="#FFC971" transform="rotate(-2 34.48 44.66)"/>
  </g>
</svg>
