<svg xmlns="http://www.w3.org/2000/svg" fill="none" viewBox="0 0 96 96">
  <mask id="a" width="96" height="96" x="0" y="0" maskUnits="userSpaceOnUse" style="mask-type:alpha">
    <circle cx="48" cy="48" r="48" fill="#D9D9D9"/>
  </mask>
  <g mask="url(#a)">
    <path fill="#fff" d="M0 0h96v96H0z"/>
    <rect width="76.56" height="40.13" x="9.79" y="28.71" fill="#DEEAFE" rx="8"/>
    <path stroke="#FFBB4E" stroke-linecap="round" stroke-width="2" d="m64.78 47.13 7.8-3.18m-7.9 7.7 6.14 5.78M58.38 44.74l-3.82-7.52m.94 11-8.43.34"/>
    <path fill="#7BACFC" d="M45.38 69.25c-3.7 7.8-1.97 7.24-2.07 12.82L38.3 93.95l16.52 6.36 4.07-10.08c2.73-2.77 8.77-7.74 12.31-16.51.84-2.07 1.24-3.69.39-4.68-.86-.99-2.27-.63-3.15 0 .16-.73.78-2.5-.48-3.63-.88-.8-2.26-.5-3.33-.06.38-1.75-1.08-2.7-1.63-2.96-.86-.42-2.36-.63-3.96.95.75-4.8 2.53-8.48 3.34-12.13.93-4.16-2.8-4.66-4.38-1.93-2.7 4.64-4.9 12.83-5.74 15.66-3.9 1.59-6.25 3.61-6.87 4.3Z"/>
    <path fill="#065AE1" d="m61.19 93.25-19.61-7.74-8.89 20.17 19.27 9.56 9.23-21.99Z"/>
    <path fill="#7BACFC" d="M49.38 57.97c-1.7 2.25-4.6 7.56-6.35 10.7-2.2 8.1.5 15.59 1.8 18.01 3.1.46 8.75-1.07 8.78-6.53.02-5.47-2.72-8.55-4.09-9.4.4-.58 1.35-2.55 2.4-5.83 1.06-3.27-1.36-6.3-2.54-6.95Z"/>
    <path fill="#FFBB4E" d="M16.78 63c7.7 0 9.02-3.65 9.02-9.78 0 7.55 2.61 9.69 9.02 9.77-7.93.04-9.01 5.11-9.05 8.04-.33-5.5-3.3-8.03-9-8.03Z"/>
    <path fill="#FFBB4E" fill-rule="evenodd" d="M23.84 60.15c1.2-1.56 1.54-3.87 1.54-6.93h.85c0 3.75.65 6.02 1.99 7.39 1.32 1.36 3.43 1.91 6.6 1.96h.42v.86h-.42c-3.86.01-5.98 1.25-7.15 2.76a8.03 8.03 0 0 0-1.47 4.83c.02.35.03.7.03 1.08l-.85.03a16.7 16.7 0 0 1-.04-1.09c-.16-2.67-.96-4.55-2.34-5.77-1.39-1.22-3.43-1.84-6.22-1.84v-.86c3.8 0 5.88-.9 7.06-2.42Zm-3.28 2.89c1.18.34 2.18.86 3.01 1.59a7.38 7.38 0 0 1 2.17 3.56A7.5 7.5 0 0 1 27 65.66a7.59 7.59 0 0 1 4.1-2.62 6.9 6.9 0 0 1-3.5-1.83c-.84-.87-1.42-2-1.78-3.46a7.49 7.49 0 0 1-1.3 2.92 6.74 6.74 0 0 1-3.96 2.37Z" clip-rule="evenodd"/>
    <path stroke="#88B5FC" stroke-linecap="round" stroke-width="2" d="M36 44.18c-1.84-.15-5.18 0-8.19-7.26-2.54-6.14-9.44-5.69-9.44.83 0 6.95-1.44 9.72-5.47 9.27C7.08 46.37 6.55 34.46.57 35.5"/>
    <path fill="#FFBB4E" d="M64.13 23.22c7.7 0 9.03-3.65 9.03-9.78 0 7.55 2.6 9.69 9.02 9.77-7.94.04-9.02 5.11-9.05 8.04-.33-5.5-3.3-8.03-9-8.03Z"/>
    <path fill="#FFBB4E" fill-rule="evenodd" d="M71.2 20.37c1.19-1.56 1.53-3.87 1.53-6.93h.85c0 3.75.66 6.02 1.99 7.39 1.33 1.36 3.43 1.91 6.6 1.96h.43l-.01.86h-.41c-3.87.01-5.99 1.25-7.15 2.76a8.03 8.03 0 0 0-1.48 4.83c.02.35.03.71.03 1.08l-.85.03c-.02-.3-.04-.68-.03-1.09-.17-2.67-.96-4.55-2.35-5.77-1.38-1.22-3.43-1.84-6.22-1.84v-.86c3.8 0 5.89-.9 7.06-2.42Zm-3.29 2.89c1.18.34 2.19.86 3.01 1.59a7.38 7.38 0 0 1 2.17 3.56 7.5 7.5 0 0 1 1.26-2.53 7.59 7.59 0 0 1 4.1-2.62 6.9 6.9 0 0 1-3.5-1.83c-.84-.87-1.42-2-1.77-3.46a7.5 7.5 0 0 1-1.3 2.92 6.74 6.74 0 0 1-3.97 2.37Z" clip-rule="evenodd"/>
    <path fill="#7BACFC" fill-rule="evenodd" d="m52.12 29.9 10.25-14.88-1.18-.81L50.95 29.1l1.17.8Z" clip-rule="evenodd"/>
    <path fill="#065AE1" fill-rule="evenodd" d="m58.76 13.6 1.92-2.8-1.96-1.35-1.92 2.8 1.96 1.35Z" clip-rule="evenodd"/>
    <path fill="#88B5FC" fill-rule="evenodd" d="m57.61 15.28 1.94 1.39.83-1.16-1.94-1.39-.83 1.16Z" clip-rule="evenodd"/>
    <path fill="#065AE1" d="m35.69 44.4 3-8.02 4 2.75-7 5.28Z"/>
    <path fill="#FD9D00" d="M49.14 21.21c-1.58 2.38-7.32 10.56-10.57 15.35.75 1.25 3.28 2.67 3.96 2.72L60.3 13.55l-4.07-2.78a839.2 839.2 0 0 0-7.08 10.44Z"/>
  </g>
</svg>
